<svg width="18" height="18" viewBox="0 0 18 18" fill="none" xmlns="http://www.w3.org/2000/svg">
<path d="M5.83337 14C4.91671 14 4.17504 14.75 4.17504 15.6666C4.17504 16.5833 4.91671 17.3333 5.83337 17.3333C6.75004 17.3333 7.50004 16.5833 7.50004 15.6666C7.50004 14.75 6.75004 14 5.83337 14ZM0.833374 0.666626V2.33329H2.50004L5.50004 8.65829L4.37504 10.7C4.24171 10.9333 4.16671 11.2083 4.16671 11.5C4.16671 12.4166 4.91671 13.1666 5.83337 13.1666H15.8334V11.5H6.18337C6.06671 11.5 5.97504 11.4083 5.97504 11.2916L6.00004 11.1916L6.75004 9.83329H12.9584C13.5834 9.83329 14.1334 9.49163 14.4167 8.97496L17.4 3.56663C17.4667 3.44996 17.5 3.30829 17.5 3.16663C17.5 2.70829 17.125 2.33329 16.6667 2.33329H4.34171L3.55837 0.666626H0.833374ZM14.1667 14C13.25 14 12.5084 14.75 12.5084 15.6666C12.5084 16.5833 13.25 17.3333 14.1667 17.3333C15.0834 17.3333 15.8334 16.5833 15.8334 15.6666C15.8334 14.75 15.0834 14 14.1667 14Z" fill="#1D2734"/>
</svg>
